<svg width="27" height="27" viewBox="0 0 27 27" fill="none" xmlns="http://www.w3.org/2000/svg">
<g clip-path="url(#clip0_10212_742)">
<g clip-path="url(#clip1_10212_742)">
<g clip-path="url(#clip2_10212_742)">
<path fill-rule="evenodd" clip-rule="evenodd" d="M2.60097 1.85783C2.39576 1.85783 2.2294 1.99646 2.2294 2.16747V24.4614C2.2294 24.6325 2.39576 24.7712 2.60097 24.7712H23.4087C23.614 24.7712 23.7803 24.6325 23.7803 24.4614V2.16747C23.7803 1.99646 23.614 1.85783 23.4087 1.85783H2.60097ZM0 2.16747C0 0.970411 1.16449 0 2.60097 0H23.4087C24.8452 0 26.0097 0.970411 26.0097 2.16747V24.4614C26.0097 25.6585 24.8452 26.629 23.4087 26.629H2.60097C1.16449 26.629 0 25.6585 0 24.4614V2.16747Z" fill="white"/>
<path fill-rule="evenodd" clip-rule="evenodd" d="M9.66113 7.12142C9.66113 6.60841 10.1602 6.1925 10.7758 6.1925H19.6934C20.3091 6.1925 20.8081 6.60841 20.8081 7.12142C20.8081 7.63445 20.3091 8.05034 19.6934 8.05034H10.7758C10.1602 8.05034 9.66113 7.63445 9.66113 7.12142Z" fill="white"/>
<path fill-rule="evenodd" clip-rule="evenodd" d="M9.66113 13.3144C9.66113 12.8014 10.1602 12.3855 10.7758 12.3855H19.6934C20.3091 12.3855 20.8081 12.8014 20.8081 13.3144C20.8081 13.8274 20.3091 14.2433 19.6934 14.2433H10.7758C10.1602 14.2433 9.66113 13.8274 9.66113 13.3144Z" fill="white"/>
<path fill-rule="evenodd" clip-rule="evenodd" d="M9.66113 19.5073C9.66113 18.9942 10.1602 18.5784 10.7758 18.5784H19.6934C20.3091 18.5784 20.8081 18.9942 20.8081 19.5073C20.8081 20.0203 20.3091 20.4362 19.6934 20.4362H10.7758C10.1602 20.4362 9.66113 20.0203 9.66113 19.5073Z" fill="white"/>
<path fill-rule="evenodd" clip-rule="evenodd" d="M6.31732 8.36005C7.13819 8.36005 7.80359 7.80556 7.80359 7.1215C7.80359 6.43745 7.13819 5.88293 6.31732 5.88293C5.49646 5.88293 4.83105 6.43745 4.83105 7.1215C4.83105 7.80556 5.49646 8.36005 6.31732 8.36005Z" fill="white"/>
<path fill-rule="evenodd" clip-rule="evenodd" d="M6.31732 14.5529C7.13819 14.5529 7.80359 13.9984 7.80359 13.3144C7.80359 12.6303 7.13819 12.0758 6.31732 12.0758C5.49646 12.0758 4.83105 12.6303 4.83105 13.3144C4.83105 13.9984 5.49646 14.5529 6.31732 14.5529Z" fill="white"/>
<path fill-rule="evenodd" clip-rule="evenodd" d="M6.31732 20.7456C7.13819 20.7456 7.80359 20.1911 7.80359 19.5069C7.80359 18.823 7.13819 18.2684 6.31732 18.2684C5.49646 18.2684 4.83105 18.823 4.83105 19.5069C4.83105 20.1911 5.49646 20.7456 6.31732 20.7456Z" fill="white"/>
</g>
</g>
</g>
<defs>
<clipPath id="clip0_10212_742">
<rect width="26.7528" height="26.7528" fill="white"/>
</clipPath>
<clipPath id="clip1_10212_742">
<rect width="26.7528" height="26.7528" fill="white"/>
</clipPath>
<clipPath id="clip2_10212_742">
<rect width="26" height="27" fill="white"/>
</clipPath>
</defs>
</svg>
