<svg width="27" height="27" viewBox="0 0 27 27" fill="none" xmlns="http://www.w3.org/2000/svg">
<path d="M19.5481 0H7.20192C3.23058 0 0 3.23058 0 7.20192V19.5481C0 23.5194 3.23058 26.75 7.20192 26.75H19.5481C23.5194 26.75 26.75 23.5194 26.75 19.5481V7.20192C26.75 3.23058 23.5194 0 19.5481 0ZM24.6923 19.5481C24.6923 22.3846 22.3846 24.6923 19.5481 24.6923H7.20192C4.36539 24.6923 2.05769 22.3846 2.05769 19.5481V7.20192C2.05769 4.36539 4.36539 2.05769 7.20192 2.05769H19.5481C22.3846 2.05769 24.6923 4.36539 24.6923 7.20192V19.5481ZM13.375 7.20192C9.97055 7.20192 7.20192 9.97055 7.20192 13.375C7.20192 16.7795 9.97055 19.5481 13.375 19.5481C16.7795 19.5481 19.5481 16.7795 19.5481 13.375C19.5481 9.97055 16.7795 7.20192 13.375 7.20192ZM13.375 17.4904C11.1054 17.4904 9.25962 15.6446 9.25962 13.375C9.25962 11.1054 11.1054 9.25962 13.375 9.25962C15.6446 9.25962 17.4904 11.1054 17.4904 13.375C17.4904 15.6446 15.6446 17.4904 13.375 17.4904ZM21.6058 6.6875C21.6058 7.53938 20.9144 8.23077 20.0625 8.23077C19.2106 8.23077 18.5192 7.53938 18.5192 6.6875C18.5192 5.83562 19.2106 5.14423 20.0625 5.14423C20.9144 5.14423 21.6058 5.83562 21.6058 6.6875Z" fill="white"/>
</svg>
