<svg width="101" height="101" viewBox="0 0 101 101" fill="none" xmlns="http://www.w3.org/2000/svg">
<g id="scrool btn">
<circle id="Ellipse 2318" cx="50.5005" cy="50.5688" r="50" transform="rotate(-180 50.5005 50.5688)" fill="white" fill-opacity="0.56"/>
<path id="Vector" d="M52.5005 51.0688L82.5005 51.0688" stroke="#0C2742"/>
<path id="Vector_2" d="M46.5005 51.0688L52.5005 47.5688V54.5688L46.5005 51.0688Z" fill="#0C2742"/>
<path id="Vector_3" d="M50.5005 25.5688C36.6934 25.5688 25.5005 36.7617 25.5005 50.5688C25.5005 64.376 36.6934 75.5688 50.5005 75.5688C64.3076 75.5688 75.5005 64.376 75.5005 50.5688C75.5005 36.7617 64.3076 25.5688 50.5005 25.5688Z" stroke="#BEBEBD" stroke-miterlimit="10"/>
<path id="Vector_4" d="M50.5005 25.5688C36.6934 25.5688 25.5005 36.7617 25.5005 50.5688C25.5005 64.376 36.6934 75.5688 50.5005 75.5688C64.3076 75.5688 75.5005 64.376 75.5005 50.5688C75.5005 36.7617 64.3076 25.5688 50.5005 25.5688Z" stroke="#0C2742" stroke-miterlimit="10" stroke-dasharray="160 160"/>
</g>
</svg>
