<svg width="165" height="277" viewBox="0 0 165 277" fill="none" xmlns="http://www.w3.org/2000/svg">
<g clip-path="url(#clip0_572_289)">
<path d="M110.099 237.798H55.6882C52.6185 237.798 50.1296 235.307 50.1296 232.235C50.1296 229.163 52.6185 226.672 55.6882 226.672H110.099C113.168 226.672 115.657 229.163 115.657 232.235C115.657 235.307 113.168 237.798 110.099 237.798Z" fill="#F2915D"/>
<path d="M110.099 255.272H55.6882C52.6185 255.272 50.1296 252.781 50.1296 249.709C50.1296 246.636 52.6185 244.145 55.6882 244.145H110.099C113.168 244.145 115.657 246.636 115.657 249.709C115.657 252.781 113.168 255.272 110.099 255.272Z" fill="#F2915D"/>
<path d="M69.6922 261.855C68.3449 261.855 67.3228 263.08 67.5717 264.406C68.9124 271.573 75.1877 277 82.7373 277C90.2869 277 96.5622 271.573 97.9029 264.406C98.1518 263.08 97.1297 261.855 95.7824 261.855H69.6922Z" fill="#F2915D"/>
<path d="M104.341 219.66H60.6525C53.083 219.66 46.7115 213.738 46.144 206.182C44.2923 181.531 34.2438 165.911 23.6013 149.374C11.9998 131.339 0 112.69 0 82.5352C0 41.8189 29.1001 7.54929 69.1977 1.05607C78.5725 -0.461786 88.4518 -0.342218 97.7702 1.39817C136.726 8.68851 165 42.812 165 82.5352C165 112.69 153 131.339 141.392 149.371C130.75 165.908 120.698 181.528 118.849 206.179C118.282 213.738 111.907 219.657 104.341 219.657V219.66ZM82.4851 10.7444C78.5924 10.7444 74.7065 11.05 70.9134 11.6644C36.0457 17.3107 10.7354 47.1164 10.7354 82.5352C10.7354 109.528 21.3713 126.055 32.631 143.555C43.529 160.49 54.7987 178.004 56.8528 205.378C57.0022 207.361 58.6714 208.916 60.6525 208.916H104.341C106.355 208.916 107.991 207.394 108.141 205.378C110.195 178.007 121.468 160.494 132.366 143.555C143.625 126.058 154.261 109.531 154.261 82.5352C154.261 47.9833 129.674 18.3038 95.7956 11.9634C91.4484 11.1496 86.9651 10.7444 82.4818 10.7444H82.4851Z" fill="#002A47"/>
</g>
<defs>
<clipPath id="clip0_572_289">
<rect width="165" height="277" fill="white"/>
</clipPath>
</defs>
</svg>
