<svg width="300" height="102" viewBox="0 0 300 102" fill="none" xmlns="http://www.w3.org/2000/svg">
<path d="M109.503 91.245H98.4756C98.2737 91.245 98.2491 91.1958 98.2491 90.8907C98.2491 90.4627 98.2491 74.8025 98.2491 74.3991C98.2491 74.1728 98.2245 74.1482 98.3771 74.1482H109.429C109.631 74.1482 109.656 74.1728 109.656 74.4237C109.656 74.6254 109.656 74.8517 109.656 75.0535C109.656 75.3585 109.607 75.4077 109.429 75.4077H99.662V81.9118H109.326C109.454 81.9118 109.479 81.961 109.479 82.2661C109.479 82.4924 109.479 82.5662 109.479 82.7679C109.479 83.1222 109.454 83.1713 109.326 83.1713H99.662V89.9805H109.503C109.779 89.9805 109.779 89.9805 109.779 90.3102C109.779 90.5611 109.779 90.689 109.779 90.9399C109.784 91.245 109.759 91.245 109.503 91.245Z" fill="white"/>
<path d="M113.491 91.2449C113.215 91.2449 112.836 91.2449 112.585 91.2449C112.432 91.2449 112.383 91.2203 112.383 90.994C112.383 90.5906 112.383 78.6892 112.383 74.0251C112.383 73.7988 112.408 73.7988 112.634 73.7988C112.861 73.7988 113.19 73.7988 113.466 73.7988C113.668 73.7988 113.693 73.7988 113.693 74.0251V90.994C113.693 91.2203 113.668 91.2449 113.491 91.2449Z" fill="white"/>
<path d="M128.181 85.218C128.107 85.3213 127.955 85.3459 127.777 85.3459C123.839 85.3459 117.936 85.3459 117.306 85.3459C117.41 88.0962 119.398 90.4922 122.731 90.4922C124.321 90.4922 125.532 89.6853 126.113 89.1293C126.163 89.0801 126.266 89.1047 126.315 89.1539C126.591 89.459 126.67 89.5328 126.921 89.9116C126.97 89.9854 127.073 90.0641 126.97 90.1379C125.808 91.0727 124.499 91.6779 122.682 91.6779C118.517 91.6779 115.972 88.9276 115.972 84.9179C115.972 81.0115 118.497 78.1333 122.51 78.1333C126.419 78.1333 128.437 81.4641 128.437 84.0569C128.432 84.6916 128.408 84.8933 128.181 85.218ZM122.475 79.2944C119.699 79.2944 117.503 81.4887 117.326 84.1356H127.118C126.995 81.6412 125.301 79.2944 122.475 79.2944Z" fill="white"/>
<path d="M136.634 91.673C132.695 91.673 129.894 88.9227 129.894 84.913C129.894 81.0066 132.567 78.1284 136.634 78.1284C139.386 78.1284 141.35 79.4125 142.335 81.4838C142.384 81.6117 142.409 81.6855 142.261 81.7839L141.429 82.2366C141.301 82.3104 141.227 82.2858 141.124 82.1087C140.218 80.2932 138.652 79.3584 136.609 79.3584C133.478 79.3584 131.287 81.779 131.287 84.9081C131.287 87.983 133.483 90.4282 136.609 90.4282C138.78 90.4282 140.444 89.3705 141.326 87.555C141.375 87.4517 141.429 87.4271 141.577 87.5304L142.335 87.983C142.463 88.0568 142.487 88.1602 142.438 88.2586C141.326 90.3151 139.356 91.673 136.634 91.673Z" fill="white"/>
<path d="M150.206 91.0188C149.399 91.373 148.818 91.496 148.163 91.496C146.676 91.496 145.362 90.3595 145.362 88.4703V79.7472C145.032 79.7472 144.126 79.7472 143.796 79.7472C143.668 79.7472 143.619 79.7226 143.619 79.4963V78.714C143.619 78.6107 143.668 78.5123 143.772 78.5123C144.023 78.5123 145.032 78.5123 145.362 78.5123V75.5112C145.362 75.3095 145.387 75.2603 145.564 75.2603C145.839 75.2603 146.169 75.2603 146.371 75.2603C146.622 75.2603 146.647 75.2849 146.647 75.5653V78.5172C147.1 78.5172 148.591 78.5172 149.143 78.5172C149.32 78.5172 149.394 78.5172 149.394 78.6206V79.5308C149.394 79.6833 149.217 79.7571 149.118 79.7571C148.311 79.7571 147.203 79.7571 146.647 79.7571V88.2784C146.647 89.8183 147.479 90.2464 148.311 90.2464C148.966 90.2464 149.625 89.9955 149.926 89.7937C150.029 89.7199 150.103 89.8183 150.152 90.02C150.201 90.1972 150.305 90.5268 150.354 90.7285C150.413 90.945 150.413 90.945 150.206 91.0188Z" fill="white"/>
<path d="M159.418 81.6413C159.29 81.6905 159.088 81.6905 158.965 81.6905C158.689 80.3768 158.108 79.4716 156.439 79.4716C154.8 79.4716 153.411 80.7311 153.008 82.7728V90.9941C153.008 91.1958 152.959 91.245 152.831 91.245C152.555 91.245 152.151 91.245 151.871 91.245C151.743 91.245 151.693 91.1958 151.693 91.0186C151.693 90.566 151.693 79.1419 151.693 78.7139C151.693 78.5122 151.693 78.5122 151.895 78.5122C152.072 78.5122 152.501 78.5122 152.801 78.5122C152.929 78.5122 152.978 78.5368 152.978 78.7139V80.4014C153.712 78.9894 154.923 78.2563 156.661 78.2563C158.502 78.2563 159.866 79.4666 160.117 81.0066C159.949 81.2378 159.698 81.5379 159.418 81.6413Z" fill="white"/>
<path d="M162.42 76.7953C162.218 76.7953 161.485 76.7953 161.337 76.7953C161.209 76.7953 161.184 76.7461 161.184 76.5689V75.5603C161.184 75.4078 161.234 75.3586 161.362 75.3586C161.514 75.3586 162.243 75.3586 162.395 75.3586C162.597 75.3586 162.647 75.3832 162.647 75.5603V76.5935C162.651 76.7707 162.597 76.7953 162.42 76.7953ZM162.346 91.2451C162.095 91.2451 161.765 91.2451 161.514 91.2451C161.288 91.2451 161.263 91.2451 161.263 90.9155C161.263 86.2268 161.263 79.2405 161.263 78.7091C161.263 78.5566 161.312 78.5074 161.465 78.5074C161.741 78.5074 162.095 78.5074 162.322 78.5074C162.548 78.5074 162.573 78.532 162.573 78.7091V90.9893C162.573 91.2205 162.548 91.2451 162.346 91.2451Z" fill="white"/>
<path d="M171.582 91.673C167.644 91.673 164.843 88.9227 164.843 84.913C164.843 81.0066 167.516 78.1284 171.582 78.1284C174.334 78.1284 176.299 79.4125 177.283 81.4838C177.332 81.6117 177.357 81.6855 177.209 81.7839L176.377 82.2366C176.249 82.3104 176.176 82.2858 176.072 82.1087C175.166 80.2932 173.601 79.3584 171.558 79.3584C168.427 79.3584 166.236 81.779 166.236 84.9081C166.236 87.983 168.432 90.4282 171.558 90.4282C173.729 90.4282 175.393 89.3705 176.274 87.555C176.323 87.4517 176.377 87.4271 176.525 87.5304L177.283 87.983C177.411 88.0568 177.436 88.1602 177.387 88.2586C176.274 90.3151 174.31 91.673 171.582 91.673Z" fill="white"/>
<path d="M191.215 91.2449C190.94 91.2449 190.684 91.2449 190.383 91.2449C190.231 91.2449 190.182 91.1957 190.182 90.994V88.9276C189.448 90.3888 187.558 91.5007 185.337 91.5007C181.729 91.5007 179.179 88.7751 179.179 84.9966C179.179 80.9622 181.527 78.2661 185.209 78.2661C187.405 78.2661 189.172 79.2993 190.182 80.8638V78.7483C190.182 78.5466 190.231 78.522 190.359 78.522C190.61 78.522 190.89 78.522 191.24 78.522C191.393 78.522 191.442 78.5712 191.442 78.6991C191.442 83.5403 191.442 85.1294 191.442 90.9792C191.442 91.1957 191.393 91.2449 191.215 91.2449ZM185.337 79.4223C182.536 79.4223 180.493 81.3411 180.493 84.8933C180.493 87.9436 182.689 90.315 185.337 90.315C188.493 90.315 190.255 88.0469 190.255 84.8933C190.255 81.5133 187.961 79.4223 185.337 79.4223Z" fill="white"/>
<path d="M195.38 91.2449C195.104 91.2449 194.725 91.2449 194.474 91.2449C194.322 91.2449 194.273 91.2203 194.273 90.994C194.273 90.5906 194.273 78.6892 194.273 74.0251C194.273 73.7988 194.297 73.7988 194.524 73.7988C194.75 73.7988 195.08 73.7988 195.356 73.7988C195.557 73.7988 195.582 73.7988 195.582 74.0251V90.994C195.582 91.2203 195.557 91.2449 195.38 91.2449Z" fill="white"/>
<path d="M219.779 91.5007C219.626 91.5007 219.577 91.5007 219.4 91.3236L217.785 89.6853C216.5 90.6939 214.885 91.6779 212.261 91.6779C206.885 91.6779 203.301 87.6927 203.301 82.7531C203.301 77.8135 207.161 73.7988 212.261 73.7988C216.323 73.7988 218.518 75.816 219.606 77.7348C219.68 77.8873 219.71 78.0398 219.503 78.1136L218.597 78.4924C218.469 78.5416 218.346 78.4678 218.292 78.3399C217.509 76.7262 215.417 75.0386 212.187 75.0386C207.924 75.0386 204.744 78.517 204.744 82.7777C204.744 87.0138 207.998 90.4921 212.237 90.4921C215.314 90.4921 217.76 88.8292 218.769 86.4332C218.843 86.2807 218.873 86.2069 218.971 86.2069H219.882C220.035 86.2069 220.035 86.2561 220.035 86.4824V91.2498C220.03 91.4466 219.981 91.5007 219.779 91.5007Z" fill="white"/>
<path d="M230.329 81.6413C230.201 81.6905 229.999 81.6905 229.876 81.6905C229.6 80.3768 229.019 79.4716 227.35 79.4716C225.711 79.4716 224.323 80.7311 223.919 82.7728V90.9941C223.919 91.1958 223.87 91.245 223.742 91.245C223.466 91.245 223.062 91.245 222.782 91.245C222.654 91.245 222.604 91.1958 222.604 91.0186C222.604 90.566 222.604 79.1419 222.604 78.7139C222.604 78.5122 222.604 78.5122 222.806 78.5122C222.984 78.5122 223.412 78.5122 223.712 78.5122C223.84 78.5122 223.889 78.5368 223.889 78.7139V80.4014C224.623 78.9894 225.834 78.2563 227.572 78.2563C229.413 78.2563 230.777 79.4666 231.028 81.0066C230.86 81.2378 230.604 81.5379 230.329 81.6413Z" fill="white"/>
<path d="M237.595 91.673C233.711 91.673 230.856 88.9227 230.856 84.913C230.856 81.0066 233.583 78.1284 237.595 78.1284C241.558 78.1284 244.33 80.8541 244.33 84.913C244.335 88.9031 241.558 91.673 237.595 91.673ZM237.595 79.319C234.519 79.319 232.195 81.6905 232.195 84.9179C232.195 87.9929 234.519 90.4922 237.595 90.4922C240.726 90.4922 242.996 88.1208 242.996 84.9179C242.996 81.8135 240.702 79.319 237.595 79.319Z" fill="white"/>
<path d="M256.47 91.2448C256.141 91.2448 255.84 91.2448 255.565 91.2448C255.363 91.2448 255.338 91.2448 255.338 90.9397V89.021C254.659 90.4084 252.69 91.4908 250.873 91.4908C248.274 91.4908 246.359 89.877 246.359 86.7775V78.7826C246.359 78.5317 246.383 78.5071 246.536 78.5071C246.811 78.5071 247.269 78.5071 247.442 78.5071C247.614 78.5071 247.643 78.5071 247.643 78.7826V86.5512C247.643 88.7209 248.855 90.2559 251.026 90.2559C252.995 90.2559 254.91 88.6667 255.338 86.5758V78.758C255.338 78.5317 255.363 78.5071 255.491 78.5071C255.766 78.5071 256.072 78.5071 256.402 78.5071C256.628 78.5071 256.628 78.5071 256.628 78.7826C256.628 83.4713 256.628 90.2313 256.628 91.0135C256.623 91.2202 256.598 91.2448 256.47 91.2448Z" fill="white"/>
<path d="M265.155 91.4713C262.983 91.4713 261.418 90.3889 260.463 88.9228V95.1268C260.463 95.3777 260.438 95.4269 260.261 95.4269C259.931 95.4269 259.68 95.4269 259.326 95.4269C259.198 95.4269 259.173 95.3777 259.173 95.176C259.173 90.3594 259.173 79.2403 259.173 78.709C259.173 78.5319 259.198 78.5073 259.326 78.5073C259.601 78.5073 260.005 78.5073 260.31 78.5073C260.438 78.5073 260.463 78.5319 260.463 78.7582V80.7753C261.27 79.3387 262.91 78.2563 265.233 78.2563C268.842 78.2563 271.466 80.7754 271.466 84.6867C271.461 88.7014 269.014 91.4713 265.155 91.4713ZM265.228 79.4716C262.073 79.4716 260.384 81.6413 260.384 84.79C260.384 88.1454 262.604 90.2856 265.228 90.2856C268.03 90.2856 270.151 88.2684 270.151 84.7359C270.146 81.6413 267.877 79.4716 265.228 79.4716Z" fill="white"/>
<path d="M121.391 28.2749L110.477 28.147C110.477 28.147 110.477 56.6629 110.477 61.6419C110.477 62.1535 110.413 62.2175 109.901 62.2175C105.623 62.2175 103.324 62.2175 99.3657 62.2175C98.7257 62.2175 98.7257 62.2815 98.7257 61.6419C98.7257 53.7306 98.7257 28.147 98.7257 28.147L87.4914 28.2749C87.0434 28.2749 87.0434 28.2109 87.0434 27.8272C87.0434 24.2553 87.0434 23.9355 87.0434 19.5961C87.0434 19.0845 87.0434 18.9565 87.5554 18.9565H121.327C121.775 18.9565 121.839 19.0845 121.839 19.5961C121.839 23.9355 121.839 24.2553 121.839 27.8272C121.839 28.2109 121.775 28.2749 121.391 28.2749Z" fill="white"/>
<path d="M143.22 43.5218C142.9 43.8416 142.26 43.9056 141.625 43.9056C141.625 41.0323 140.414 39.5022 138.115 39.5022C136.136 39.5022 135.117 40.7765 134.349 41.9277V61.514C134.349 62.0896 134.221 62.2175 133.837 62.2175C130.327 62.2175 127.771 62.2175 124.005 62.2175C123.557 62.2175 123.493 62.2175 123.493 61.327C123.493 49.5881 123.493 42.5723 123.493 30.7693C123.493 30.0018 123.493 30.0018 124.005 30.0018C127.643 30.0018 129.943 30.0018 133.517 30.0018C133.965 30.0018 134.029 30.0018 134.029 30.7693V33.8935C135.368 30.7054 138.878 29.0474 141.689 29.0474C146.415 29.0474 149.733 31.6648 149.861 36.7667C148.517 38.1 143.988 42.8182 143.22 43.5218Z" fill="white"/>
<path d="M163.646 26.3612C160.072 26.3612 157.581 26.3612 153.879 26.3612C153.431 26.3612 153.367 25.9134 153.367 25.5346V18.8976C153.367 18.5139 153.367 18.0662 153.815 18.0662C157.069 18.0662 160.771 18.0662 163.582 18.0662C164.094 18.0662 164.222 18.1301 164.222 18.8976V25.6625C164.222 26.2332 164.094 26.3612 163.646 26.3612ZM163.646 62.2127C160.136 62.2127 157.581 62.2127 153.879 62.2127C153.431 62.2127 153.367 62.2127 153.367 61.3222C153.367 49.5832 153.367 42.5674 153.367 30.7645C153.367 29.997 153.367 29.997 153.815 29.997C157.453 29.997 160.008 29.997 163.582 29.997C164.094 29.997 164.222 29.997 164.222 30.7645V61.5141C164.222 62.0848 164.094 62.2127 163.646 62.2127ZM163.646 62.2127C160.136 62.2127 157.581 62.2127 153.879 62.2127C153.431 62.2127 153.367 62.2127 153.367 61.3222C153.367 49.5832 153.367 42.5674 153.367 30.7645C153.367 29.997 153.367 29.997 153.815 29.997C157.453 29.997 160.008 29.997 163.582 29.997C164.094 29.997 164.222 29.997 164.222 30.7645V61.5141C164.222 62.0848 164.094 62.2127 163.646 62.2127Z" fill="white"/>
<path d="M202.459 62.2765C198.628 62.2765 197.353 62.2765 193.582 62.2765C193.006 62.2765 192.878 62.0207 192.878 61.2531V59.4032C191.219 61.7009 187.96 62.6553 184.706 62.6553C175.323 62.6553 169.322 56.6579 169.322 46.0702C169.322 35.8614 175.707 29.6081 184.386 29.6081C187.512 29.6081 190.963 30.8824 192.558 32.8602V18.8876C192.558 18.1841 192.622 18.0562 193.07 18.0562C196.772 18.0562 198.687 18.0562 202.646 18.0562C203.094 18.0562 203.158 18.0562 203.158 18.9467C203.158 30.6856 203.158 49.5044 203.158 61.2433C203.158 62.0207 202.971 62.2765 202.459 62.2765ZM186.37 39.5661C182.86 39.5661 179.921 42.1195 179.921 46.2031C179.921 50.1587 182.732 52.968 186.562 52.968C190.072 52.968 192.819 50.3506 192.819 46.267C192.819 42.1195 189.944 39.5661 186.37 39.5661Z" fill="white"/>
<path d="M239.096 48.048C238.968 48.6876 238.776 48.8155 237.821 48.8155C232.267 48.8155 218.734 48.8155 218.734 48.8155C218.798 52.2594 221.481 54.4291 225.247 54.4291C228.245 54.4291 230.288 52.5153 231.376 51.241C231.568 50.9852 231.952 51.1131 232.267 51.5608C233.606 53.4107 235.393 55.9641 236.673 57.942C237.057 58.5176 236.865 58.9653 236.354 59.4081C234.374 61.1301 229.968 63.1718 225.055 63.1718C215.352 63.1718 208.268 56.7907 208.268 45.9472C208.268 36.25 214.717 29.1653 225.055 29.1653C232.907 29.1653 239.485 34.715 239.485 43.7135C239.48 45.9472 239.352 46.9656 239.096 48.048ZM224.095 37.7801C220.585 37.7801 219.054 40.5254 218.734 43.2018H229.525C229.264 39.8219 227.349 37.7801 224.095 37.7801Z" fill="white"/>
<path d="M273.375 62.2126C269.864 62.2126 267.373 62.2126 263.735 62.2126C263.287 62.2126 263.159 62.2126 263.159 61.5091V42.4985C263.159 39.6252 261.308 38.287 259.137 38.287C256.582 38.287 255.243 39.6252 254.475 41.3521V61.514C254.475 62.0896 254.411 62.2175 254.027 62.2175C250.645 62.2175 247.706 62.2175 244.132 62.2175C243.684 62.2175 243.62 62.2175 243.62 61.327C243.62 49.5881 243.62 42.5723 243.62 30.7693C243.62 30.0018 243.62 30.0018 244.068 30.0018C247.514 30.0018 250.069 30.0018 253.451 30.0018C253.899 30.0018 254.155 30.3856 254.155 31.0252V35.1727C255.43 31.4089 259.196 29.0474 264.114 29.0474C270.756 29.0474 274.01 32.6832 274.01 39.576V61.268C274.015 62.1487 273.887 62.2126 273.375 62.2126Z" fill="white"/>
<path d="M299.418 61.2581C297.951 61.9616 295.652 63.044 292.905 63.044C282.113 63.044 281.67 55.7724 281.67 49.3273V38.1639C280.779 38.1639 280.011 38.1639 279.051 38.1639C278.603 38.1639 278.347 38.1639 278.347 37.4604V30.7594C278.347 30.4396 278.411 29.9919 278.859 29.9919C279.307 29.9919 280.134 29.9919 281.67 29.9919L281.862 22.0167C281.862 21.3771 281.926 21.1262 282.374 21.1262C285.564 21.1262 288.055 21.1262 291.438 21.1262C292.334 21.1262 292.649 21.8298 292.649 22.2086L292.521 29.9919C293.353 29.9919 296.031 29.9919 297.946 29.9919C298.394 29.9919 298.586 30.1838 298.586 30.5036V37.3275C298.586 37.9671 298.394 38.223 297.882 38.223C296.607 38.223 293.988 38.159 292.521 38.159V49.9619C292.521 52.7712 294.5 54.1734 297.818 53.4698C298.586 53.278 298.901 53.5338 299.029 54.2373C299.157 54.9409 299.861 59.4033 299.989 60.2987C300.058 60.8104 299.802 61.0662 299.418 61.2581Z" fill="white"/>
<path d="M163.646 26.3612C160.072 26.3612 157.581 26.3612 153.879 26.3612C153.431 26.3612 153.367 25.9134 153.367 25.5346V18.8976C153.367 18.5139 153.367 18.0662 153.815 18.0662C157.069 18.0662 160.771 18.0662 163.582 18.0662C164.094 18.0662 164.222 18.1301 164.222 18.8976V25.6625C164.222 26.2332 164.094 26.3612 163.646 26.3612Z" fill="#CB6027"/>
<path d="M73.4612 40.3385H60.0657H42.0327L40.5657 40.2303C34.1214 40.2303 29.6119 33.8688 31.7535 27.7977L34.1657 20.9639L17.9739 40.3385L16.2066 42.4492L0 61.7452H31.7042L31.6993 61.7747H33.186C39.6303 61.7747 44.1398 68.1362 41.9982 74.2073L39.5958 81.0264L55.7039 61.7452H55.7088L56.3636 60.958H56.3685L73.4612 40.3385Z" fill="#CB6027"/>
<path opacity="0.73" d="M51.6863 0L42.0569 40.2303L42.0323 40.3385L40.5652 40.2303C34.121 40.2303 29.6115 33.8688 31.753 27.7976L34.1653 20.9638L51.6863 0Z" fill="#644131"/>
<path d="M42.0077 74.2073L39.5954 81.0362L22.0793 102L31.7087 61.7747H33.1955C39.6397 61.7747 44.1492 68.141 42.0077 74.2073Z" fill="#644131"/>
<path d="M34.1752 20.9638L51.6863 0L42.0569 40.2303L42.0323 40.3385L40.5652 40.2303C34.121 40.2303 29.6115 33.8688 31.753 27.7976L34.1752 20.9638Z" fill="#644131"/>
<path d="M51.6863 0L42.0569 40.3336H42.0323L40.5652 40.2254C34.121 40.2254 29.6115 33.8639 31.753 27.7927L34.1653 20.9589L51.6863 0Z" fill="#644131"/>
<path d="M42.0077 74.2073L39.5954 81.0362L22.0793 102L31.7087 61.7747H33.1955C39.6397 61.7747 44.1492 68.141 42.0077 74.2073Z" fill="#644131"/>
</svg>
