<svg width="190" height="66" viewBox="0 0 190 66" fill="none" xmlns="http://www.w3.org/2000/svg">
<path d="M69.3521 58.8672H62.368C62.2401 58.8672 62.2246 58.8358 62.2246 58.6414C62.2246 58.3687 62.2246 48.3892 62.2246 48.1321C62.2246 47.9878 62.209 47.9722 62.3056 47.9722H69.3053C69.4332 47.9722 69.4488 47.9878 69.4488 48.1477C69.4488 48.2763 69.4488 48.4205 69.4488 48.5491C69.4488 48.7434 69.4176 48.7748 69.3053 48.7748H63.1225V52.9196H69.243C69.324 52.9196 69.3396 52.9509 69.3396 53.1453C69.3396 53.2896 69.3396 53.3366 69.3396 53.4651C69.3396 53.6909 69.324 53.7222 69.243 53.7222H63.1225V58.0614H69.3552C69.5298 58.0614 69.5298 58.0614 69.5298 58.2715C69.5298 58.4314 69.5298 58.5129 69.5298 58.6728C69.5298 58.8672 69.5142 58.8672 69.3521 58.8672Z" fill="white"/>
<path d="M71.8812 58.8671C71.7066 58.8671 71.4665 58.8671 71.3075 58.8671C71.2109 58.8671 71.1797 58.8514 71.1797 58.7072C71.1797 58.4501 71.1797 50.8659 71.1797 47.8937C71.1797 47.7495 71.1953 47.7495 71.3387 47.7495C71.4821 47.7495 71.691 47.7495 71.8656 47.7495C71.9935 47.7495 72.009 47.7495 72.009 47.8937V58.7072C72.009 58.8514 71.9903 58.8671 71.8812 58.8671Z" fill="white"/>
<path d="M81.1814 55.0265C81.1346 55.0923 81.038 55.108 80.9257 55.108C78.4314 55.108 74.693 55.108 74.2939 55.108C74.3594 56.8606 75.619 58.3875 77.7299 58.3875C78.7369 58.3875 79.5039 57.8733 79.8719 57.519C79.903 57.4877 79.9685 57.5033 79.9997 57.5347C80.1743 57.7291 80.2242 57.7761 80.3832 58.0175C80.4144 58.0645 80.4799 58.1147 80.4144 58.1617C79.6786 58.7574 78.8492 59.1431 77.6987 59.1431C75.0609 59.1431 73.449 57.3905 73.449 54.8352C73.449 52.3458 75.0485 50.5117 77.5896 50.5117C80.0652 50.5117 81.3435 52.6343 81.3435 54.2866C81.3404 54.691 81.3248 54.8195 81.1814 55.0265ZM77.5677 51.2516C75.8092 51.2516 74.4186 52.65 74.3064 54.3367H80.5079C80.43 52.7472 79.3574 51.2516 77.5677 51.2516Z" fill="white"/>
<path d="M86.5349 59.1399C84.0406 59.1399 82.2665 57.3873 82.2665 54.8321C82.2665 52.3427 83.9595 50.5085 86.5349 50.5085C88.2778 50.5085 89.5219 51.3268 90.1454 52.6468C90.1766 52.7283 90.1922 52.7753 90.0987 52.838L89.5717 53.1265C89.4907 53.1735 89.4439 53.1578 89.3784 53.045C88.8047 51.8881 87.8132 51.2924 86.5193 51.2924C84.5363 51.2924 83.1488 52.8349 83.1488 54.8289C83.1488 56.7884 84.5394 58.3467 86.5193 58.3467C87.8943 58.3467 88.9482 57.6726 89.5063 56.5157C89.5374 56.4498 89.5717 56.4342 89.6653 56.5L90.1454 56.7884C90.2265 56.8355 90.2421 56.9013 90.2109 56.964C89.5063 58.2746 88.2591 59.1399 86.5349 59.1399Z" fill="white"/>
<path d="M95.1337 58.7229C94.6223 58.9486 94.2544 59.027 93.8397 59.027C92.8981 59.027 92.0657 58.3027 92.0657 57.0988V51.54C91.8568 51.54 91.2831 51.54 91.0742 51.54C90.9931 51.54 90.9619 51.5243 90.9619 51.3801V50.8816C90.9619 50.8158 90.9931 50.7531 91.0586 50.7531C91.2176 50.7531 91.8568 50.7531 92.0657 50.7531V48.8406C92.0657 48.712 92.0812 48.6807 92.1935 48.6807C92.3681 48.6807 92.577 48.6807 92.7048 48.6807C92.8638 48.6807 92.8794 48.6963 92.8794 48.875V50.7562C93.1663 50.7562 94.111 50.7562 94.4602 50.7562C94.5725 50.7562 94.6192 50.7562 94.6192 50.822V51.4021C94.6192 51.4993 94.507 51.5463 94.4446 51.5463C93.9333 51.5463 93.2317 51.5463 92.8794 51.5463V56.9765C92.8794 57.9579 93.4064 58.2306 93.9333 58.2306C94.348 58.2306 94.7658 58.0707 94.956 57.9422C95.0214 57.8952 95.0682 57.9579 95.0994 58.0864C95.1306 58.1993 95.196 58.4093 95.2272 58.5379C95.2615 58.6758 95.2615 58.6758 95.1337 58.7229Z" fill="white"/>
<path d="M100.964 52.7471C100.883 52.7785 100.755 52.7785 100.677 52.7785C100.503 51.9414 100.135 51.3645 99.0779 51.3645C98.0397 51.3645 97.1604 52.1671 96.9047 53.4682V58.7073C96.9047 58.8358 96.8736 58.8671 96.7925 58.8671C96.6179 58.8671 96.3622 58.8671 96.1845 58.8671C96.1034 58.8671 96.0723 58.8358 96.0723 58.7229C96.0723 58.4345 96.0723 51.1544 96.0723 50.8817C96.0723 50.7531 96.0723 50.7531 96.2001 50.7531C96.3123 50.7531 96.5836 50.7531 96.7738 50.7531C96.8549 50.7531 96.886 50.7688 96.886 50.8817V51.9571C97.3506 51.0572 98.1176 50.5901 99.2182 50.5901C100.384 50.5901 101.248 51.3614 101.407 52.3427C101.301 52.49 101.142 52.6813 100.964 52.7471Z" fill="white"/>
<path d="M102.87 49.6589C102.742 49.6589 102.277 49.6589 102.184 49.6589C102.103 49.6589 102.087 49.6275 102.087 49.5147V48.8719C102.087 48.7748 102.118 48.7434 102.199 48.7434C102.296 48.7434 102.757 48.7434 102.854 48.7434C102.982 48.7434 103.013 48.7591 103.013 48.8719V49.5303C103.013 49.6432 102.979 49.6589 102.87 49.6589ZM102.82 58.8671C102.661 58.8671 102.452 58.8671 102.293 58.8671C102.149 58.8671 102.134 58.8671 102.134 58.6571C102.134 55.6692 102.134 51.2171 102.134 50.8785C102.134 50.7813 102.165 50.75 102.262 50.75C102.436 50.75 102.661 50.75 102.804 50.75C102.948 50.75 102.963 50.7656 102.963 50.8785V58.7041C102.963 58.8514 102.948 58.8671 102.82 58.8671Z" fill="white"/>
<path d="M108.669 59.1399C106.175 59.1399 104.401 57.3873 104.401 54.8321C104.401 52.3427 106.094 50.5085 108.669 50.5085C110.412 50.5085 111.656 51.3268 112.279 52.6468C112.311 52.7283 112.326 52.7753 112.233 52.838L111.706 53.1265C111.625 53.1735 111.578 53.1578 111.512 53.045C110.939 51.8881 109.947 51.2924 108.653 51.2924C106.67 51.2924 105.283 52.8349 105.283 54.8289C105.283 56.7884 106.673 58.3467 108.653 58.3467C110.028 58.3467 111.082 57.6726 111.64 56.5157C111.671 56.4498 111.706 56.4342 111.799 56.5L112.279 56.7884C112.361 56.8355 112.376 56.9013 112.345 56.964C111.64 58.2746 110.396 59.1399 108.669 59.1399Z" fill="white"/>
<path d="M121.103 58.867C120.928 58.867 120.766 58.867 120.576 58.867C120.479 58.867 120.448 58.8356 120.448 58.7071V57.3903C119.983 58.3215 118.786 59.03 117.38 59.03C115.095 59.03 113.479 57.2931 113.479 54.8852C113.479 52.3143 114.967 50.5962 117.299 50.5962C118.69 50.5962 119.809 51.2546 120.448 52.2516V50.9034C120.448 50.7749 120.479 50.7592 120.56 50.7592C120.719 50.7592 120.897 50.7592 121.118 50.7592C121.215 50.7592 121.246 50.7906 121.246 50.8721C121.246 53.9572 121.246 54.9699 121.246 58.6977C121.246 58.8356 121.215 58.867 121.103 58.867ZM117.38 51.333C115.606 51.333 114.312 52.5557 114.312 54.8194C114.312 56.7632 115.703 58.2744 117.38 58.2744C119.379 58.2744 120.495 56.8291 120.495 54.8194C120.495 52.6655 119.042 51.333 117.38 51.333Z" fill="white"/>
<path d="M123.741 58.8671C123.566 58.8671 123.326 58.8671 123.167 58.8671C123.07 58.8671 123.039 58.8514 123.039 58.7072C123.039 58.4501 123.039 50.8659 123.039 47.8937C123.039 47.7495 123.055 47.7495 123.198 47.7495C123.342 47.7495 123.55 47.7495 123.725 47.7495C123.853 47.7495 123.868 47.7495 123.868 47.8937V58.7072C123.868 58.8514 123.853 58.8671 123.741 58.8671Z" fill="white"/>
<path d="M139.193 59.0301C139.097 59.0301 139.065 59.0301 138.953 58.9173L137.93 57.8732C137.117 58.516 136.094 59.143 134.432 59.143C131.027 59.143 128.758 56.6035 128.758 53.4557C128.758 50.3079 131.202 47.7495 134.432 47.7495C137.004 47.7495 138.395 49.035 139.084 50.2577C139.131 50.3549 139.15 50.4521 139.019 50.4991L138.445 50.7405C138.364 50.7719 138.286 50.7249 138.252 50.6434C137.756 49.615 136.431 48.5396 134.385 48.5396C131.685 48.5396 129.671 50.7562 129.671 53.4713C129.671 56.1708 131.732 58.3874 134.417 58.3874C136.365 58.3874 137.915 57.3277 138.554 55.8008C138.601 55.7036 138.62 55.6566 138.682 55.6566H139.259C139.355 55.6566 139.355 55.688 139.355 55.8322V58.8702C139.352 58.9957 139.321 59.0301 139.193 59.0301Z" fill="white"/>
<path d="M145.875 52.7471C145.794 52.7785 145.666 52.7785 145.589 52.7785C145.414 51.9414 145.046 51.3645 143.989 51.3645C142.951 51.3645 142.072 52.1671 141.816 53.4682V58.7073C141.816 58.8358 141.785 58.8671 141.704 58.8671C141.529 58.8671 141.273 58.8671 141.096 58.8671C141.015 58.8671 140.983 58.8358 140.983 58.7229C140.983 58.4345 140.983 51.1544 140.983 50.8817C140.983 50.7531 140.983 50.7531 141.111 50.7531C141.223 50.7531 141.495 50.7531 141.685 50.7531C141.766 50.7531 141.797 50.7688 141.797 50.8817V51.9571C142.262 51.0572 143.029 50.5901 144.129 50.5901C145.295 50.5901 146.159 51.3614 146.318 52.3427C146.212 52.49 146.05 52.6813 145.875 52.7471Z" fill="white"/>
<path d="M150.477 59.1399C148.017 59.1399 146.209 57.3873 146.209 54.8321C146.209 52.3427 147.936 50.5085 150.477 50.5085C152.987 50.5085 154.743 52.2455 154.743 54.8321C154.746 57.3747 152.987 59.1399 150.477 59.1399ZM150.477 51.2673C148.529 51.2673 147.057 52.7785 147.057 54.8352C147.057 56.7947 148.529 58.3874 150.477 58.3874C152.46 58.3874 153.898 56.8762 153.898 54.8352C153.898 52.8569 152.445 51.2673 150.477 51.2673Z" fill="white"/>
<path d="M162.431 58.8672C162.222 58.8672 162.031 58.8672 161.857 58.8672C161.729 58.8672 161.713 58.8672 161.713 58.6728V57.45C161.283 58.3342 160.036 59.0239 158.885 59.0239C157.239 59.0239 156.026 57.9956 156.026 56.0204V50.9256C156.026 50.7657 156.042 50.75 156.139 50.75C156.313 50.75 156.603 50.75 156.712 50.75C156.821 50.75 156.84 50.75 156.84 50.9256V55.8761C156.84 57.2588 157.607 58.237 158.982 58.237C160.229 58.237 161.442 57.2243 161.713 55.8918V50.9099C161.713 50.7657 161.729 50.75 161.81 50.75C161.985 50.75 162.178 50.75 162.387 50.75C162.53 50.75 162.53 50.75 162.53 50.9256C162.53 53.9135 162.53 58.2213 162.53 58.7198C162.527 58.8515 162.512 58.8672 162.431 58.8672Z" fill="white"/>
<path d="M167.931 59.0114C166.556 59.0114 165.564 58.3216 164.96 57.3873V61.3409C164.96 61.5008 164.944 61.5321 164.832 61.5321C164.623 61.5321 164.464 61.5321 164.239 61.5321C164.158 61.5321 164.143 61.5008 164.143 61.3722C164.143 58.3028 164.143 51.2171 164.143 50.8785C164.143 50.7657 164.158 50.75 164.239 50.75C164.414 50.75 164.67 50.75 164.863 50.75C164.944 50.75 164.96 50.7657 164.96 50.9099V52.1953C165.471 51.2798 166.509 50.5901 167.981 50.5901C170.266 50.5901 171.928 52.1953 171.928 54.6879C171.925 57.2462 170.375 59.0114 167.931 59.0114ZM167.978 51.3645C165.979 51.3645 164.91 52.7471 164.91 54.7537C164.91 56.8919 166.316 58.2558 167.978 58.2558C169.752 58.2558 171.096 56.9703 171.096 54.7192C171.093 52.7471 169.655 51.3645 167.978 51.3645Z" fill="white"/>
<path d="M76.8815 18.7389L69.9691 18.6574C69.9691 18.6574 69.9691 36.8293 69.9691 40.0022C69.9691 40.3283 69.9285 40.369 69.6043 40.369C66.8948 40.369 65.4387 40.369 62.9319 40.369C62.5266 40.369 62.5266 40.4098 62.5266 40.0022C62.5266 34.9607 62.5266 18.6574 62.5266 18.6574L55.4115 18.7389C55.1278 18.7389 55.1278 18.6982 55.1278 18.4536C55.1278 16.1774 55.1278 15.9737 55.1278 13.2084C55.1278 12.8823 55.1278 12.8008 55.4521 12.8008H76.8409C77.1246 12.8008 77.1652 12.8823 77.1652 13.2084C77.1652 15.9737 77.1652 16.1774 77.1652 18.4536C77.1652 18.6982 77.1247 18.7389 76.8815 18.7389Z" fill="white"/>
<path d="M90.7062 28.4551C90.5036 28.6589 90.0982 28.6997 89.696 28.6997C89.696 26.8687 88.929 25.8936 87.473 25.8936C86.2196 25.8936 85.5741 26.7056 85.0878 27.4393V39.9207C85.0878 40.2875 85.0067 40.3691 84.7635 40.3691C82.5404 40.3691 80.9222 40.3691 78.537 40.3691C78.2533 40.3691 78.2128 40.3691 78.2128 39.8016C78.2128 32.3209 78.2128 27.85 78.2128 20.3285C78.2128 19.8394 78.2128 19.8394 78.537 19.8394C80.8412 19.8394 82.2972 19.8394 84.5608 19.8394C84.8446 19.8394 84.8851 19.8394 84.8851 20.3285V22.3194C85.7332 20.2878 87.9562 19.2312 89.7366 19.2312C92.7298 19.2312 94.8312 20.8992 94.9123 24.1504C94.0611 25.0001 91.1926 28.0068 90.7062 28.4551Z" fill="white"/>
<path d="M103.643 17.5194C101.379 17.5194 99.8016 17.5194 97.457 17.5194C97.1732 17.5194 97.1327 17.2341 97.1327 16.9927V12.7633C97.1327 12.5187 97.1327 12.2334 97.4164 12.2334C99.4774 12.2334 101.822 12.2334 103.602 12.2334C103.927 12.2334 104.008 12.2742 104.008 12.7633V17.0742C104.008 17.4379 103.927 17.5194 103.643 17.5194ZM103.643 40.366C101.42 40.366 99.8016 40.366 97.457 40.366C97.1732 40.366 97.1327 40.366 97.1327 39.7985C97.1327 32.3178 97.1327 27.8469 97.1327 20.3255C97.1327 19.8364 97.1327 19.8364 97.4164 19.8364C99.7206 19.8364 101.339 19.8364 103.602 19.8364C103.927 19.8364 104.008 19.8364 104.008 20.3255V39.9208C104.008 40.2845 103.927 40.366 103.643 40.366ZM103.643 40.366C101.42 40.366 99.8016 40.366 97.457 40.366C97.1732 40.366 97.1327 40.366 97.1327 39.7985C97.1327 32.3178 97.1327 27.8469 97.1327 20.3255C97.1327 19.8364 97.1327 19.8364 97.4164 19.8364C99.7206 19.8364 101.339 19.8364 103.602 19.8364C103.927 19.8364 104.008 19.8364 104.008 20.3255V39.9208C104.008 40.2845 103.927 40.366 103.643 40.366Z" fill="white"/>
<path d="M128.224 40.4067C125.798 40.4067 124.991 40.4067 122.602 40.4067C122.238 40.4067 122.157 40.2436 122.157 39.7545V38.5757C121.106 40.0398 119.042 40.6481 116.981 40.6481C111.038 40.6481 107.237 36.8262 107.237 30.0792C107.237 23.5735 111.281 19.5886 116.778 19.5886C118.758 19.5886 120.944 20.4007 121.954 21.661V12.7569C121.954 12.3086 121.994 12.2271 122.278 12.2271C124.623 12.2271 125.836 12.2271 128.343 12.2271C128.626 12.2271 128.667 12.2271 128.667 12.7945C128.667 20.2752 128.667 32.2676 128.667 39.7483C128.667 40.2436 128.548 40.4067 128.224 40.4067ZM118.035 25.9344C115.812 25.9344 113.95 27.5616 113.95 30.1638C113.95 32.6846 115.731 34.4748 118.156 34.4748C120.379 34.4748 122.119 32.8068 122.119 30.2046C122.119 27.5616 120.298 25.9344 118.035 25.9344Z" fill="white"/>
<path d="M151.428 31.3395C151.346 31.7471 151.225 31.8286 150.62 31.8286C147.103 31.8286 138.532 31.8286 138.532 31.8286C138.572 34.0233 140.272 35.4059 142.657 35.4059C144.556 35.4059 145.85 34.1863 146.539 33.3743C146.66 33.2112 146.903 33.2927 147.103 33.5781C147.951 34.7569 149.083 36.3841 149.894 37.6445C150.137 38.0113 150.015 38.2966 149.691 38.5788C148.437 39.6761 145.647 40.9772 142.535 40.9772C136.39 40.9772 131.903 36.9108 131.903 30.0007C131.903 23.8212 135.988 19.3064 142.535 19.3064C147.508 19.3064 151.674 22.843 151.674 28.5773C151.671 30.0007 151.59 30.6497 151.428 31.3395ZM141.927 24.7962C139.704 24.7962 138.735 26.5457 138.532 28.2513H145.366C145.201 26.0973 143.988 24.7962 141.927 24.7962Z" fill="white"/>
<path d="M173.137 40.3659C170.914 40.3659 169.337 40.3659 167.033 40.3659C166.749 40.3659 166.668 40.3659 166.668 39.9176V27.803C166.668 25.972 165.495 25.1192 164.12 25.1192C162.502 25.1192 161.654 25.972 161.168 27.0725V39.9207C161.168 40.2875 161.127 40.3691 160.884 40.3691C158.742 40.3691 156.881 40.3691 154.617 40.3691C154.333 40.3691 154.293 40.3691 154.293 39.8016C154.293 32.3209 154.293 27.85 154.293 20.3285C154.293 19.8394 154.293 19.8394 154.577 19.8394C156.759 19.8394 158.377 19.8394 160.519 19.8394C160.803 19.8394 160.965 20.084 160.965 20.4916V23.1346C161.773 20.7361 164.158 19.2312 167.273 19.2312C171.479 19.2312 173.54 21.5482 173.54 25.9406V39.764C173.543 40.3252 173.462 40.3659 173.137 40.3659Z" fill="white"/>
<path d="M189.632 39.7576C188.702 40.2059 187.246 40.8957 185.507 40.8957C178.672 40.8957 178.392 36.2618 178.392 32.1546V25.0407C177.827 25.0407 177.341 25.0407 176.733 25.0407C176.449 25.0407 176.287 25.0407 176.287 24.5924V20.3222C176.287 20.1184 176.328 19.8331 176.611 19.8331C176.895 19.8331 177.419 19.8331 178.392 19.8331L178.513 14.7508C178.513 14.3432 178.554 14.1833 178.837 14.1833C180.858 14.1833 182.436 14.1833 184.578 14.1833C185.145 14.1833 185.345 14.6317 185.345 14.8731L185.263 19.8331C185.79 19.8331 187.487 19.8331 188.699 19.8331C188.983 19.8331 189.105 19.9553 189.105 20.1591V24.5077C189.105 24.9153 188.983 25.0783 188.659 25.0783C187.851 25.0783 186.193 25.0376 185.263 25.0376V32.559C185.263 34.3493 186.517 35.2428 188.618 34.7945C189.105 34.6722 189.304 34.8352 189.385 35.2836C189.466 35.7319 189.912 38.5756 189.993 39.1462C190.037 39.4723 189.875 39.6353 189.632 39.7576Z" fill="white"/>
<path d="M46.5254 26.4267H38.0416H26.6207L25.6916 26.3577C21.6102 26.3577 18.7542 22.3038 20.1105 18.4349L21.6383 14.0801L11.3835 26.4267L10.2642 27.7717L0 40.0682H20.0793L20.0762 40.087H21.0178C25.0992 40.087 27.9552 44.1409 26.5989 48.0097L25.0773 52.3552L35.2791 40.0682H35.2823L35.6969 39.5665H35.7001L46.5254 26.4267Z" fill="white"/>
<path opacity="0.73" d="M32.7342 0.720703L26.6355 26.3576L26.6199 26.4266L25.6908 26.3576C21.6095 26.3576 18.7535 22.3038 20.1098 18.4349L21.6375 14.08L32.7342 0.720703Z" fill="#EDEDED"/>
<path d="M26.6047 48.0097L25.0769 52.3614L13.9834 65.7207L20.082 40.0869H21.0236C25.105 40.0869 27.961 44.1439 26.6047 48.0097Z" fill="#EDEDED"/>
<path d="M21.6438 14.08L32.7342 0.720703L26.6355 26.3576L26.6199 26.4266L25.6908 26.3576C21.6095 26.3576 18.7535 22.3038 20.1098 18.4349L21.6438 14.08Z" fill="#EDEDED"/>
<path d="M32.7342 0.720703L26.6355 26.4235H26.6199L25.6908 26.3545C21.6095 26.3545 18.7535 22.3006 20.1098 18.4317L21.6375 14.0769L32.7342 0.720703Z" fill="#EDEDED"/>
<path d="M26.6047 48.0097L25.0769 52.3614L13.9834 65.7207L20.082 40.0869H21.0236C25.105 40.0869 27.961 44.1439 26.6047 48.0097Z" fill="#EDEDED"/>
</svg>
