<svg width="27" height="21" viewBox="0 0 27 21" fill="none" xmlns="http://www.w3.org/2000/svg">
<g clip-path="url(#clip0_10213_769)">
<path fill-rule="evenodd" clip-rule="evenodd" d="M0 0.945707C0 0.423407 0.417781 0 0.93314 0H25.8169C26.3322 0 26.75 0.423407 26.75 0.945707V19.8598C26.75 20.3821 26.3322 20.8056 25.8169 20.8056H0.93314C0.417781 20.8056 0 20.3821 0 19.8598V0.945707ZM1.86628 1.89141V18.9141H24.8837V1.89141H1.86628Z" fill="white"/>
<path fill-rule="evenodd" clip-rule="evenodd" d="M0.186682 0.368484C0.495896 -0.0384723 1.08079 -0.120948 1.49307 0.184269L13.375 8.98053L25.2569 0.184269C25.6692 -0.120948 26.2541 -0.0384723 26.5633 0.368484C26.8725 0.775441 26.789 1.35277 26.3767 1.65799L13.9349 10.8687C13.6031 11.1144 13.1469 11.1144 12.8151 10.8687L0.373309 1.65799C-0.0389761 1.35277 -0.122532 0.775441 0.186682 0.368484Z" fill="white"/>
<path fill-rule="evenodd" clip-rule="evenodd" d="M0.0625 0.690755C0.0625 0.11847 0.478347 -0.345459 0.991319 -0.345459H13.3756C13.8886 -0.345459 14.3044 0.11847 14.3044 0.690755C14.3044 1.26304 13.8886 1.72697 13.3756 1.72697H1.92014V11.0529C1.92014 11.6252 1.50429 12.0891 0.991319 12.0891C0.478347 12.0891 0.0625 11.6252 0.0625 11.0529V0.690755Z" fill="white"/>
<path fill-rule="evenodd" clip-rule="evenodd" d="M12.4463 0.690755C12.4463 0.11847 12.8621 -0.345459 13.3751 -0.345459H25.7594C26.2723 -0.345459 26.6882 0.11847 26.6882 0.690755V11.0529C26.6882 11.6252 26.2723 12.0891 25.7594 12.0891C25.2464 12.0891 24.8305 11.6252 24.8305 11.0529V1.72697H13.3751C12.8621 1.72697 12.4463 1.26304 12.4463 0.690755Z" fill="white"/>
</g>
<defs>
<clipPath id="clip0_10213_769">
<rect width="26.75" height="20.8056" fill="white"/>
</clipPath>
</defs>
</svg>
