<svg width="27" height="27" viewBox="0 0 27 27" fill="none" xmlns="http://www.w3.org/2000/svg">
<mask id="mask0_10212_719" style="mask-type:luminance" maskUnits="userSpaceOnUse" x="0" y="0" width="27" height="27">
<path d="M26.75 0H0V26.75H26.75V0Z" fill="white"/>
</mask>
<g mask="url(#mask0_10212_719)">
<path fill-rule="evenodd" clip-rule="evenodd" d="M4.58502 2.22798C3.38697 2.22798 2.63964 3.30153 2.98189 4.31588C4.20907 7.95279 6.49595 13.424 9.90632 16.8344C13.3167 20.2447 18.7879 22.5316 22.4249 23.7588C23.439 24.1011 24.5127 23.3538 24.5127 22.1556V18.4627C24.5127 18.3306 24.4411 18.2089 24.3255 18.1446L21.1088 16.3562C21.0037 16.2978 20.8767 16.295 20.7692 16.3488L17.3387 18.064C17.1242 18.1713 16.8804 18.2049 16.6448 18.1597L16.8504 17.0874C16.6448 18.1597 16.6448 18.1597 16.6448 18.1597L16.6416 18.1591L16.6375 18.1582L16.6265 18.1562L16.5937 18.1493C16.5669 18.1435 16.5307 18.1355 16.4858 18.125C16.3959 18.1037 16.2711 18.072 16.1171 18.0276C15.8096 17.9389 15.3837 17.7985 14.8887 17.5876C13.9028 17.1675 12.6159 16.4558 11.4504 15.2903C10.2851 14.125 9.57145 12.8362 9.14937 11.849C8.9374 11.3531 8.79596 10.9264 8.70643 10.6184C8.6616 10.4642 8.62957 10.3391 8.60811 10.2492C8.59737 10.2042 8.58925 10.168 8.58349 10.1413L8.57655 10.1084L8.57433 10.0974L8.57353 10.0933L8.57319 10.0916C8.57319 10.0916 8.57292 10.0902 9.64466 9.88174L8.57319 10.0916C8.52722 9.85525 8.56039 9.60885 8.66809 9.39346L10.3836 5.9624C10.4373 5.85506 10.4346 5.72798 10.3763 5.62294L8.59561 2.41533C8.53137 2.2997 8.40951 2.22798 8.27739 2.22798H4.58502ZM10.8028 10.007L10.8033 10.0088C10.872 10.2451 10.9849 10.5873 11.1573 10.9906C11.5039 11.8014 12.0792 12.8309 12.9944 13.7462M12.9944 13.7462C13.9096 14.6613 14.9367 15.2343 15.7447 15.5787C16.1465 15.7499 16.4874 15.8616 16.7227 15.9295L19.7926 14.3957C20.545 14.0194 21.4347 14.0389 22.1699 14.4476L25.3867 16.2361C26.195 16.6855 26.6964 17.5378 26.6964 18.4627V22.1556C26.6964 24.7188 24.2763 26.6882 21.7267 25.8278C18.044 24.5852 12.1533 22.1696 8.36222 18.3785C4.57112 14.5874 2.15542 8.69662 0.912821 5.01402C0.0525689 2.46447 2.02186 0.0443115 4.58502 0.0443115H8.27739C9.20288 0.0443115 10.0555 0.546244 10.5048 1.35534L12.2855 4.56308C12.6935 5.29799 12.7128 6.18697 12.3367 6.93895L10.8028 10.007" fill="white"/>
</g>
</svg>
