<svg width="28" height="28" viewBox="0 0 28 28" fill="none" xmlns="http://www.w3.org/2000/svg">
<g id="Base/phone-telephone">
<path id="Vector (Stroke)" fill-rule="evenodd" clip-rule="evenodd" d="M7.09918 5.24895C6.15865 5.24895 5.57196 6.09174 5.84064 6.88805C6.80404 9.7432 8.59934 14.0383 11.2766 16.7156C13.9539 19.393 18.2491 21.1883 21.1043 22.1516C21.9005 22.4203 22.7433 21.8337 22.7433 20.8931V17.994C22.7433 17.8903 22.6872 17.7947 22.5964 17.7442L20.0711 16.3403C19.9887 16.2944 19.8889 16.2922 19.8046 16.3344L17.1114 17.681C16.943 17.7652 16.7516 17.7916 16.5666 17.7561L16.7281 16.9143C16.5666 17.7561 16.5669 17.7562 16.5666 17.7561L16.5642 17.7556L16.561 17.755L16.5523 17.7533L16.5265 17.7479C16.5055 17.7434 16.4771 17.7371 16.4418 17.7288C16.3713 17.7121 16.2733 17.6873 16.1524 17.6524C15.9111 17.5827 15.5766 17.4725 15.188 17.3069C14.4141 16.9771 13.4038 16.4184 12.4888 15.5035C11.574 14.5887 11.0138 13.5769 10.6824 12.8019C10.516 12.4126 10.405 12.0776 10.3347 11.8358C10.2995 11.7148 10.2743 11.6166 10.2575 11.546C10.2491 11.5107 10.2427 11.4822 10.2382 11.4612L10.2327 11.4354L10.231 11.4268L10.2303 11.4236L10.2301 11.4223C10.23 11.422 10.2299 11.4212 11.0712 11.2575L10.2301 11.4223C10.194 11.2367 10.22 11.0433 10.3046 10.8742L11.6513 8.18065C11.6935 8.09637 11.6914 7.99662 11.6456 7.91415L10.2477 5.39603C10.2477 5.39602 10.2477 5.39605 10.2477 5.39603C10.1973 5.30525 10.1016 5.24895 9.99786 5.24895H7.09918ZM11.9804 11.3558C11.9805 11.3563 11.9807 11.3568 11.9808 11.3573C12.0347 11.5428 12.1234 11.8114 12.2587 12.128C12.5308 12.7645 12.9824 13.5728 13.701 14.2913C13.701 14.2913 13.701 14.2913 13.701 14.2913L13.0949 14.8974M13.701 14.2913C14.4194 15.0097 15.2258 15.4595 15.8601 15.7298C16.1755 15.8643 16.4431 15.952 16.6278 16.0053C16.6275 16.0052 16.6281 16.0054 16.6278 16.0053L19.0378 14.8012C19.0378 14.8012 19.0378 14.8012 19.0378 14.8012C19.6285 14.5058 20.327 14.5211 20.9041 14.842L23.4295 16.246C24.0641 16.5988 24.4576 17.2678 24.4576 17.994V20.8931C24.4576 22.9053 22.5577 24.4514 20.5562 23.7759C17.6651 22.8005 13.0406 20.9041 10.0645 17.9278C7.08827 14.9516 5.19183 10.3271 4.21633 7.43612C3.54099 5.4346 5.08697 3.53467 7.09918 3.53467H9.99786C10.7244 3.53467 11.3938 3.92871 11.7464 4.56388L13.1444 7.08211C13.4647 7.65905 13.4798 8.35694 13.1846 8.94728C13.1846 8.9473 13.1846 8.94727 13.1846 8.94728L11.9804 11.3558" fill="white"/>
</g>
</svg>
