<svg width="128" height="128" viewBox="0 0 128 128" fill="none" xmlns="http://www.w3.org/2000/svg">
<path d="M56 33H14C13.4696 33 12.9609 33.2107 12.5858 33.5858C12.2107 33.9609 12 34.4696 12 35C12 35.5304 12.2107 36.0391 12.5858 36.4142C12.9609 36.7893 13.4696 37 14 37H56C56.5304 37 57.0391 36.7893 57.4142 36.4142C57.7893 36.0391 58 35.5304 58 35C58 34.4696 57.7893 33.9609 57.4142 33.5858C57.0391 33.2107 56.5304 33 56 33Z" fill="#F2915D"/>
<path d="M56 41H14C13.4696 41 12.9609 41.2107 12.5858 41.5858C12.2107 41.9609 12 42.4696 12 43C12 43.5304 12.2107 44.0391 12.5858 44.4142C12.9609 44.7893 13.4696 45 14 45H56C56.5304 45 57.0391 44.7893 57.4142 44.4142C57.7893 44.0391 58 43.5304 58 43C58 42.4696 57.7893 41.9609 57.4142 41.5858C57.0391 41.2107 56.5304 41 56 41Z" fill="#F2915D"/>
<path d="M56 49H14C13.4696 49 12.9609 49.2107 12.5858 49.5858C12.2107 49.9609 12 50.4696 12 51C12 51.5304 12.2107 52.0391 12.5858 52.4142C12.9609 52.7893 13.4696 53 14 53H56C56.5304 53 57.0391 52.7893 57.4142 52.4142C57.7893 52.0391 58 51.5304 58 51C58 50.4696 57.7893 49.9609 57.4142 49.5858C57.0391 49.2107 56.5304 49 56 49Z" fill="#F2915D"/>
<path d="M58 108C58 107.47 57.7893 106.961 57.4142 106.586C57.0391 106.211 56.5304 106 56 106H14C13.4696 106 12.9609 106.211 12.5858 106.586C12.2107 106.961 12 107.47 12 108C12 108.53 12.2107 109.039 12.5858 109.414C12.9609 109.789 13.4696 110 14 110H56C56.5304 110 57.0391 109.789 57.4142 109.414C57.7893 109.039 58 108.53 58 108Z" fill="#F2915D"/>
<path d="M14 114C13.4696 114 12.9609 114.211 12.5858 114.586C12.2107 114.961 12 115.47 12 116C12 116.53 12.2107 117.039 12.5858 117.414C12.9609 117.789 13.4696 118 14 118H43C43.5304 118 44.0391 117.789 44.4142 117.414C44.7893 117.039 45 116.53 45 116C45 115.47 44.7893 114.961 44.4142 114.586C44.0391 114.211 43.5304 114 43 114H14Z" fill="#F2915D"/>
<path d="M43 78C43.5304 78 44.0391 77.7893 44.4142 77.4142C44.7893 77.0391 45 76.5304 45 76C45 75.4696 44.7893 74.9609 44.4142 74.5858C44.0391 74.2107 43.5304 74 43 74H14C13.4696 74 12.9609 74.2107 12.5858 74.5858C12.2107 74.9609 12 75.4696 12 76C12 76.5304 12.2107 77.0391 12.5858 77.4142C12.9609 77.7893 13.4696 78 14 78H43Z" fill="#F2915D"/>
<path d="M12 94C12 95.0609 12.4214 96.0783 13.1716 96.8284C13.9217 97.5786 14.9391 98 16 98H24C25.0609 98 26.0783 97.5786 26.8284 96.8284C27.5786 96.0783 28 95.0609 28 94V86C28 84.9391 27.5786 83.9217 26.8284 83.1716C26.0783 82.4214 25.0609 82 24 82H16C14.9391 82 13.9217 82.4214 13.1716 83.1716C12.4214 83.9217 12 84.9391 12 86V94ZM16 86H24V94H16V86Z" fill="#F2915D"/>
<path d="M54.7578 68.7568L57.5146 66H14C13.4696 66 12.9609 66.2107 12.5858 66.5858C12.2107 66.9609 12 67.4696 12 68C12 68.5304 12.2107 69.0391 12.5858 69.4142C12.9609 69.7893 13.4696 70 14 70H53.8092C54.0698 69.546 54.3888 69.1281 54.7578 68.7568Z" fill="#F2915D"/>
<path d="M91.7772 31.7378C91.5148 30.9426 91.0088 30.2502 90.3308 29.7588C89.6528 29.2674 88.8373 29.0019 88 29H68C66.9391 29 65.9217 29.4214 65.1716 30.1716C64.4214 30.9217 64 31.9391 64 33V53C64.0019 53.8373 64.2673 54.6528 64.7587 55.3307C65.2501 56.0087 65.9425 56.5147 66.7376 56.7771L70.5148 53H68V33H88V35.515L91.7772 31.7378Z" fill="#F2915D"/>
<path d="M73.8975 89.6924L72 90.3249V94C72 95.0609 72.4214 96.0783 73.1716 96.8284C73.9217 97.5786 74.9391 98 76 98H84C85.0609 98 86.0783 97.5786 86.8284 96.8284C87.5786 96.0783 88 95.0609 88 94V86C88 84.9391 87.5786 83.9217 86.8284 83.1716C86.0783 82.4214 85.0609 82 84 82H82.4849L78.4849 86H84V94H76V88.4581C75.3907 89.0087 74.6752 89.4287 73.8975 89.6924Z" fill="#F2915D"/>
<path d="M48.9225 86L50.0989 82H46C44.9391 82 43.9217 82.4214 43.1716 83.1716C42.4214 83.9217 42 84.9391 42 86V94C42 95.0609 42.4214 96.0783 43.1716 96.8284C43.9217 97.5786 44.9391 98 46 98H54C54.8768 97.9982 55.7286 97.7076 56.4236 97.1731C57.1187 96.6387 57.6183 95.8901 57.8452 95.0432L55.8975 95.6924C54.8576 96.0387 53.7429 96.0938 52.674 95.8516C51.6051 95.6094 50.6229 95.0791 49.834 94.3184C49.73 94.218 49.642 94.1064 49.5464 94H46V86H48.9225Z" fill="#F2915D"/>
<path d="M104 19.5151V8C103.998 5.879 103.154 3.84555 101.654 2.34578C100.154 0.846002 98.121 0.00238211 96 0L8 0C5.879 0.00238211 3.84555 0.846002 2.34578 2.34578C0.846002 3.84555 0.00238211 5.879 0 8L0 120C0.00238211 122.121 0.846002 124.154 2.34578 125.654C3.84555 127.154 5.879 127.998 8 128H96C98.121 127.998 100.154 127.154 101.654 125.654C103.154 124.154 103.998 122.121 104 120V60.4849L100 64.4849V120C100 121.061 99.5786 122.078 98.8284 122.828C98.0783 123.579 97.0609 124 96 124H8C6.93913 124 5.92172 123.579 5.17157 122.828C4.42143 122.078 4 121.061 4 120V18H100V23.5151L104 19.5151ZM4 14V8C4 6.93913 4.42143 5.92172 5.17157 5.17157C5.92172 4.42143 6.93913 4 8 4H96C97.0609 4 98.0783 4.42143 98.8284 5.17157C99.5786 5.92172 100 6.93913 100 8V14H4Z" fill="#F2915D"/>
<path d="M115.414 16.5859C115.229 16.4002 115.008 16.2528 114.765 16.1523C114.523 16.0517 114.263 16 114 16C113.738 16 113.477 16.0517 113.235 16.1523C112.992 16.2528 112.772 16.4002 112.586 16.5859L57.5861 71.5859C57.3493 71.8224 57.1757 72.1145 57.0812 72.4355L52.0812 89.4355C51.9782 89.7861 51.9731 90.1581 52.0665 90.5113C52.16 90.8645 52.3484 91.1854 52.6113 91.4391C52.8742 91.6928 53.2016 91.8697 53.5579 91.9505C53.9142 92.0313 54.2859 92.0129 54.6325 91.8975L72.6325 85.8975C72.9271 85.7992 73.1947 85.6337 73.4142 85.4141L127.414 31.4141C127.6 31.2284 127.747 31.0079 127.848 30.7653C127.948 30.5227 128 30.2626 128 30C128 29.7374 127.948 29.4773 127.848 29.2347C127.747 28.992 127.6 28.7716 127.414 28.5859L115.414 16.5859ZM56.9987 86.8926L60.7751 74.0537L61.0004 73.8284L69.7979 82.6259L56.9987 86.8926ZM72.9999 80.1716L63.8285 71.0002L107 27.8282L116.172 36.9997L72.9999 80.1716ZM119 34.1716L109.828 25L114 20.8281L123.172 30L119 34.1716Z" fill="#F2915D"/>
</svg>
