<svg width="241" height="34" viewBox="0 0 241 34" fill="none" xmlns="http://www.w3.org/2000/svg">
<g id="rated-people-logo 1" clip-path="url(#clip0_10198_668)">
<g id="Group">
<path id="Vector" fill-rule="evenodd" clip-rule="evenodd" d="M79.7759 27.1194C79.0462 27.1255 78.3192 27.0297 77.6156 26.8348C76.9801 26.6602 76.3913 26.3444 75.8924 25.9105C75.4054 25.4849 75.0333 24.922 74.7723 24.2231C74.5113 23.5242 74.3815 22.6541 74.3815 21.6114V11.7338H72.0189V8.03911H74.3815V2.88622H78.6833V8.03911H83.6893V11.7338H78.682V20.9364C78.682 21.7663 78.8818 22.3644 79.2814 22.7309C79.681 23.0986 80.2454 23.2812 80.9746 23.2812C81.8912 23.2812 82.7728 23.0684 83.6181 22.6427V26.1598C83.0745 26.4691 82.4943 26.7078 81.8912 26.8701C81.2793 27.0363 80.5751 27.1194 79.7759 27.1194ZM97.942 16.1047C97.8768 15.4412 97.7226 14.7896 97.4838 14.1679C97.265 13.592 96.9419 13.062 96.531 12.6052C96.1282 12.1644 95.6432 11.8079 95.1037 11.5562C94.5506 11.2956 93.9225 11.1658 93.2182 11.1658C91.9008 11.1658 90.8144 11.6217 89.9566 12.5334C89.0975 13.4451 88.5755 14.6364 88.3869 16.1047H97.942ZM93.7114 27.2252C92.426 27.2354 91.1509 26.9942 89.9566 26.515C88.8242 26.0621 87.793 25.3856 86.9235 24.5253C86.0499 23.649 85.3606 22.604 84.8968 21.4527C84.4023 20.2564 84.1563 18.9342 84.1563 17.4898V17.4193C84.1563 16.0694 84.3799 14.8013 84.8256 13.6164C85.2506 12.468 85.8907 11.4128 86.7112 10.5085C87.5198 9.62185 88.4975 8.90875 89.5857 8.41185C90.6908 7.90311 91.912 7.64874 93.2532 7.64874C94.7329 7.64874 96.0315 7.92074 97.1491 8.46599C98.2285 8.98168 99.1799 9.73418 99.9337 10.6684C100.69 11.6226 101.258 12.7139 101.608 13.8833C102.045 15.3205 102.23 16.8235 102.155 18.3247C102.143 18.5262 102.125 18.734 102.101 18.9468H88.4232C88.6567 20.4869 89.2623 21.6643 90.2375 22.4816C91.2128 23.3001 92.394 23.7081 93.7813 23.7081C94.839 23.7081 95.7556 23.5192 96.531 23.1401C97.3064 22.7611 98.0707 22.2045 98.8224 21.4704L101.326 23.7081C100.442 24.7663 99.3573 25.6358 98.1356 26.2656C96.9019 26.9053 95.4259 27.2252 93.7114 27.2252ZM113.049 23.46C113.751 23.46 114.43 23.3177 115.087 23.0318C115.739 22.7498 116.326 22.3323 116.807 21.8066C117.299 21.2739 117.692 20.6405 117.985 19.9064C118.278 19.1722 118.425 18.355 118.425 17.4546V17.3841C118.425 16.4837 118.278 15.6601 117.985 14.9134C117.718 14.2093 117.318 13.5641 116.807 13.0132C116.322 12.4962 115.736 12.0848 115.087 11.8043C114.44 11.5261 113.744 11.3813 113.041 11.3782C112.338 11.3752 111.641 11.5141 110.992 11.7867C110.348 12.0594 109.767 12.4652 109.288 12.9779C108.779 13.527 108.384 14.1736 108.128 14.8794C107.848 15.6249 107.707 16.4598 107.707 17.3841V17.4546C107.707 18.355 107.848 19.1773 108.128 19.9227C108.384 20.6286 108.779 21.2753 109.288 21.8242C109.77 22.3386 110.349 22.7498 110.992 23.0331C111.641 23.318 112.341 23.4642 113.049 23.46ZM112.044 27.1899C110.939 27.1899 109.868 26.9758 108.834 26.5502C107.798 26.1225 106.861 25.4813 106.085 24.6676C105.286 23.839 104.64 22.8203 104.146 21.6114C103.652 20.4025 103.406 19.0173 103.406 17.4546V17.3841C103.406 15.8201 103.646 14.4349 104.127 13.226C104.606 12.0171 105.246 10.9996 106.044 10.171C106.822 9.35441 107.763 8.71251 108.805 8.28718C109.826 7.86514 110.919 7.64785 112.022 7.64748C113.546 7.64748 114.813 7.97992 115.821 8.64229C116.786 9.26647 117.642 10.0472 118.355 10.953V0.861328H122.655V26.7995H118.355L118.39 23.6728C117.697 24.6541 116.831 25.4974 115.833 26.1598C114.811 26.8461 113.548 27.1899 112.044 27.1899ZM144.61 23.46C145.312 23.4618 146.007 23.3193 146.652 23.0413C147.298 22.7633 147.881 22.3556 148.365 21.8431C148.868 21.299 149.258 20.6583 149.511 19.9593C149.793 19.2138 149.934 18.3789 149.934 17.4533V17.3841C149.934 16.4837 149.793 15.6601 149.511 14.9134C149.255 14.2109 148.866 13.5655 148.365 13.0132C147.89 12.4968 147.313 12.0852 146.673 11.8043C146.022 11.5195 145.319 11.3745 144.61 11.3787C143.882 11.3787 143.188 11.521 142.531 11.8055C141.873 12.0889 141.297 12.4981 140.803 13.0308C140.309 13.5635 139.916 14.1981 139.621 14.9323C139.328 15.6664 139.181 16.4837 139.181 17.3841V17.4546C139.181 18.355 139.328 19.1773 139.621 19.9227C139.889 20.6277 140.29 21.2735 140.803 21.8242C141.294 22.3438 141.885 22.7568 142.54 23.0378C143.194 23.3189 143.899 23.4621 144.611 23.4587L144.61 23.46ZM134.986 8.03911H139.287V11.1658C139.963 10.1742 140.823 9.32342 141.819 8.65992C142.827 7.98622 144.082 7.64748 145.583 7.64748C146.684 7.64748 147.752 7.86155 148.783 8.28718C149.822 8.71814 150.762 9.35929 151.545 10.171C152.353 10.9996 153.004 12.0184 153.497 13.226C153.989 14.4349 154.236 15.8201 154.236 17.3841V17.4546C154.236 19.0173 153.995 20.4038 153.514 21.6114C153.034 22.8203 152.388 23.839 151.579 24.6676C150.792 25.4818 149.846 26.1228 148.801 26.5502C147.779 26.9721 146.686 27.1894 145.583 27.1899C144.059 27.1899 142.792 26.8587 141.784 26.1951C140.825 25.5775 139.98 24.796 139.287 23.8856V32.4838H134.986V8.03911ZM169.254 16.1047C169.189 15.4412 169.035 14.7896 168.796 14.1679C168.578 13.5921 168.255 13.0621 167.845 12.6052C167.441 12.1642 166.956 11.8078 166.416 11.5562C165.864 11.2956 165.236 11.1658 164.53 11.1658C163.213 11.1658 162.127 11.6217 161.269 12.5334C160.411 13.4451 159.888 14.6364 159.7 16.1047H169.254ZM165.024 27.2252C163.738 27.2354 162.463 26.9942 161.269 26.515C160.137 26.0619 159.106 25.3855 158.237 24.5253C157.363 23.6491 156.673 22.6041 156.209 21.4527C155.716 20.2564 155.47 18.9342 155.47 17.4898V17.4193C155.47 16.0694 155.692 14.8013 156.139 13.6164C156.564 12.468 157.204 11.4128 158.025 10.5085C158.833 9.62185 159.811 8.90875 160.899 8.41185C162.003 7.90311 163.226 7.64874 164.565 7.64874C166.046 7.64874 167.345 7.92074 168.461 8.46599C169.541 8.98168 170.492 9.73418 171.246 10.6684C172.003 11.6225 172.572 12.7138 172.922 13.8833C173.358 15.3205 173.543 16.8235 173.467 18.3247C173.455 18.5262 173.437 18.734 173.415 18.9468H159.735C159.97 20.4869 160.576 21.6643 161.551 22.4816C162.526 23.3001 163.708 23.7081 165.095 23.7081C166.153 23.7081 167.068 23.5192 167.845 23.1401C168.62 22.7611 169.384 22.2045 170.136 21.4704L172.64 23.7081C171.756 24.7663 170.671 25.6358 169.449 26.2656C168.214 26.9053 166.739 27.2252 165.024 27.2252ZM184.591 23.4953C185.454 23.4953 186.23 23.3353 186.92 23.0155C187.591 22.7092 188.193 22.2678 188.689 21.7184C189.18 21.1744 189.553 20.5398 189.81 19.817C190.068 19.0954 190.196 18.331 190.196 17.5251V17.4546C190.201 16.6535 190.058 15.8585 189.776 15.1098C189.51 14.4 189.112 13.7484 188.602 13.1907C188.097 12.6438 187.489 12.203 186.815 11.8937C186.094 11.5674 185.311 11.4041 184.521 11.4152C183.679 11.4152 182.914 11.5738 182.225 11.8937C181.557 12.1979 180.955 12.6327 180.455 13.1731C179.955 13.7221 179.573 14.3695 179.334 15.0746C179.076 15.8167 178.946 16.5978 178.949 17.3841V17.4546C178.949 18.2844 179.089 19.0601 179.37 19.7817C179.65 20.5045 180.041 21.1442 180.544 21.7008C181.046 22.2574 181.641 22.6956 182.329 23.0155C183.039 23.3393 183.811 23.5026 184.59 23.494M184.52 27.2252C183.109 27.2252 181.799 26.9708 180.589 26.4621C179.419 25.9807 178.354 25.275 177.451 24.3843C176.557 23.4852 175.848 22.4161 175.367 21.2388C174.886 20.0616 174.641 18.7997 174.647 17.5264V17.4546C174.647 16.1047 174.901 14.8378 175.407 13.6516C175.911 12.4679 176.605 11.4316 177.486 10.5438C178.387 9.64197 179.453 8.92408 180.624 8.42948C181.835 7.9094 183.156 7.64874 184.591 7.64874C186.023 7.64874 187.346 7.90311 188.557 8.41185C189.768 8.92185 190.813 9.62074 191.695 10.5085C192.593 11.4085 193.303 12.4803 193.785 13.661C194.266 14.8417 194.509 16.1075 194.498 17.3841V17.4546C194.498 18.7818 194.245 20.0361 193.739 21.2198C193.25 22.3812 192.544 23.4371 191.66 24.3301C190.754 25.2348 189.682 25.9529 188.504 26.4444C187.281 26.9645 185.953 27.2252 184.521 27.2252M205.574 23.46C206.276 23.4617 206.971 23.3192 207.617 23.0412C208.262 22.7632 208.845 22.3556 209.329 21.8431C209.81 21.3331 210.193 20.706 210.475 19.9593C210.758 19.2138 210.9 18.3789 210.9 17.4533V17.3841C210.9 16.4837 210.758 15.6601 210.475 14.9134C210.219 14.2113 209.83 13.566 209.33 13.0132C208.855 12.4967 208.278 12.085 207.637 11.8043C206.986 11.5195 206.284 11.3745 205.574 11.3787C204.846 11.3787 204.152 11.521 203.495 11.8055C202.836 12.0889 202.26 12.4981 201.767 13.0308C201.274 13.5635 200.88 14.1981 200.586 14.9323C200.292 15.6664 200.145 16.4837 200.145 17.3841V17.4546C200.145 18.355 200.292 19.1773 200.586 19.9227C200.854 20.6277 201.255 21.2735 201.767 21.8242C202.258 22.3438 202.849 22.7568 203.504 23.0378C204.159 23.3189 204.864 23.4621 205.575 23.4587L205.574 23.46ZM195.95 8.03911H200.251V11.1658C200.928 10.1742 201.787 9.32342 202.783 8.65992C203.791 7.98622 205.046 7.64748 206.547 7.64748C207.648 7.64748 208.716 7.86155 209.747 8.28718C210.786 8.71839 211.726 9.35951 212.509 10.171C213.316 10.9996 213.968 12.0184 214.461 13.226C214.953 14.4349 215.199 15.8201 215.199 17.3841V17.4546C215.199 19.0173 214.959 20.4038 214.479 21.6114C213.998 22.8203 213.352 23.839 212.543 24.6676C211.756 25.4822 210.81 26.1232 209.765 26.5502C208.744 26.9721 207.651 27.1894 206.547 27.1899C205.023 27.1899 203.756 26.8587 202.748 26.1951C201.789 25.5775 200.944 24.796 200.251 23.8856V32.4838H195.95V8.03911ZM216.934 26.7995H221.235V0.861328H216.934V26.7995ZM236.649 16.1047C236.584 15.4412 236.43 14.7897 236.191 14.1679C235.973 13.5918 235.65 13.0619 235.238 12.6052C234.835 12.1645 234.351 11.808 233.811 11.5562C233.258 11.2956 232.63 11.1658 231.926 11.1658C230.608 11.1658 229.522 11.6217 228.664 12.5334C227.805 13.4451 227.283 14.6364 227.094 16.1047H236.649ZM232.418 27.2252C231.133 27.2353 229.858 26.9941 228.664 26.515C227.532 26.062 226.5 25.3855 225.631 24.5253C224.757 23.6488 224.068 22.6038 223.604 21.4527C223.111 20.2564 222.864 18.9342 222.864 17.4898V17.4193C222.864 16.0694 223.087 14.8013 223.534 13.6164C223.959 12.4679 224.599 11.4127 225.42 10.5085C226.228 9.62212 227.205 8.90905 228.293 8.41185C229.398 7.90311 230.621 7.64874 231.961 7.64874C233.44 7.64874 234.739 7.92074 235.856 8.46599C236.936 8.98172 237.887 9.73421 238.641 10.6684C239.398 11.6225 239.966 12.7137 240.316 13.8833C240.752 15.3205 240.937 16.8235 240.863 18.3247C240.85 18.5262 240.833 18.734 240.809 18.9468H227.131C227.364 20.4869 227.97 21.6643 228.946 22.4816C229.92 23.3001 231.101 23.7081 232.489 23.7081C233.546 23.7081 234.463 23.5192 235.238 23.1401C236.015 22.7611 236.778 22.2045 237.53 21.4704L240.033 23.7081C239.15 24.7664 238.065 25.636 236.843 26.2656C235.609 26.9053 234.133 27.2252 232.418 27.2252ZM66.0664 17.4911C66.0664 18.3902 65.9203 19.2138 65.6256 19.9593C65.3581 20.6642 64.9573 21.31 64.4455 21.8607C63.9545 22.3803 63.3634 22.7932 62.7085 23.0742C62.0536 23.3553 61.3487 23.4986 60.637 23.4953C59.935 23.4972 59.24 23.3549 58.5944 23.0769C57.9488 22.7989 57.3662 22.3911 56.8821 21.8784C56.3792 21.3341 55.9898 20.6935 55.7371 19.9945C55.4536 19.249 55.3125 18.4141 55.3125 17.4898V17.4193C55.3125 16.519 55.4536 15.6954 55.7371 14.9499C55.9927 14.2471 56.3816 13.6013 56.8821 13.0484C57.3573 12.5319 57.9334 12.1203 58.5741 11.8396C59.225 11.5548 59.9275 11.4099 60.637 11.4139C61.3662 11.4139 62.0605 11.5562 62.7173 11.8408C63.3754 12.1254 63.951 12.5334 64.4455 13.0661C64.9388 13.6 65.3321 14.2334 65.6256 14.9675C65.9203 15.7017 66.0664 16.519 66.0664 17.4193V17.4898V17.4911ZM70.262 8.16377H65.9615V11.2011C65.2846 10.2093 64.4243 9.35843 63.4278 8.69518C62.4201 8.02148 61.1652 7.68399 59.6642 7.68399C58.5661 7.68336 57.4787 7.90072 56.4638 8.3237C55.5016 8.72556 54.6243 9.30896 53.879 10.0426C53.8216 10.0993 53.7604 10.1484 53.7029 10.2063C52.8938 11.0361 52.2432 12.0536 51.7512 13.2625C51.6451 13.5219 51.5552 13.7914 51.474 14.0684C51.4403 14.1793 51.4103 14.2938 51.3803 14.4072C51.2405 14.9529 51.1419 15.5086 51.0856 16.0694V16.0732C51.0384 16.5203 51.0138 16.9696 51.012 17.4193V17.4898C51.012 19.0538 51.253 20.439 51.7337 21.6467C52.2145 22.8556 52.8588 23.8743 53.668 24.7029C54.4553 25.5171 55.4012 26.1581 56.4463 26.5855C57.4675 27.0076 58.5606 27.2249 59.6642 27.2252C61.1877 27.2252 62.4551 26.894 63.4641 26.2304C64.4233 25.6128 65.2684 24.8312 65.9615 23.9209V26.8172L70.262 26.831V8.16377ZM49.7957 13.6919C49.8806 13.4161 49.9681 13.1429 50.0742 12.8822C50.6124 11.56 51.3404 10.4254 52.2357 9.5074C52.3031 9.43814 52.3756 9.37896 52.4442 9.31348C51.3379 8.32748 49.8707 7.83385 48.0363 7.83385C47.3121 7.83385 46.6627 7.92325 46.0908 8.10207C45.0053 8.43782 44.0259 9.05431 43.25 9.89022C42.8879 10.2844 42.5545 10.7087 42.2498 11.1608V8.22296H37.958V26.9418H42.2498V16.4018C42.2498 14.9398 42.6332 13.8015 43.4011 12.988C44.1678 12.1745 45.1668 11.7665 46.3993 11.7665C47.6554 11.7665 48.6257 12.1632 49.3112 12.9527C49.501 13.1706 49.6584 13.4199 49.7957 13.6907" fill="white"/>
<path id="Vector_2" d="M28.9672 32.2735C28.5239 32.5884 28.0057 32.7558 27.4637 32.7609H3.79202C3.4299 32.7658 3.07046 32.6976 2.73485 32.5603C2.39925 32.423 2.09426 32.2194 1.83782 31.9616C1.58139 31.7037 1.37869 31.3966 1.24166 31.0586C1.10462 30.7205 1.03602 30.3582 1.03988 29.993V3.49065C1.03988 1.96317 2.24738 0.721536 3.72959 0.721536H18.9788C25.1274 0.721536 30.1309 5.86813 30.1309 12.1959C30.1309 16.2394 28.4839 19.5336 25.472 21.5371L25.1748 21.7348L29.6552 28.4215C30.4981 29.6782 30.1871 31.4059 28.9672 32.2735ZM3.72959 3.12672C3.63509 3.12805 3.54496 3.1671 3.47896 3.23531C3.41295 3.30353 3.37645 3.39534 3.37745 3.49065V29.993C3.37745 30.2008 3.54353 30.3569 3.79202 30.3569H27.4487C27.5305 30.3538 27.6087 30.3225 27.6703 30.2682C27.7319 30.2138 27.7732 30.1398 27.7871 30.0585C27.8049 29.9635 27.7847 29.8653 27.7309 29.7852L23.2593 23.1149C22.9634 22.6742 22.8085 22.2297 22.7923 21.765C22.7648 20.9415 23.2119 20.1305 23.9336 19.6898C26.662 18.02 27.7934 15.3554 27.7934 12.1959C27.7934 7.19413 23.8387 3.12672 18.9775 3.12672H3.72959ZM26.1438 21.9275L30.2271 28.021C31.286 29.5989 30.8977 31.7661 29.363 32.8553C28.8048 33.2507 28.1518 33.4635 27.4775 33.4698H3.79327C3.33937 33.4742 2.88916 33.3873 2.46898 33.2141C2.0488 33.0409 1.66708 32.7849 1.34617 32.4612C1.02525 32.1374 0.771581 31.7524 0.599993 31.3286C0.428404 30.9048 0.342344 30.4508 0.346848 29.993V3.49065C0.346848 1.57405 1.86402 0.0125732 3.73084 0.0125732H18.98C25.5132 0.0125732 30.8265 5.47776 30.8265 12.1946C30.8265 16.3389 29.1732 19.7729 26.1463 21.9262L26.1438 21.9275ZM3.73084 2.41776C3.45121 2.42042 3.18406 2.53491 2.98809 2.73608C2.79211 2.93725 2.68334 3.20865 2.68567 3.49065V29.993C2.68567 30.605 3.17392 31.0659 3.79327 31.0659H27.4562C27.6644 31.0631 27.8668 30.9968 28.0369 30.8758C28.2655 30.7119 28.4215 30.4642 28.4715 30.1858C28.5214 29.9074 28.4613 29.6204 28.3041 29.3861L23.8337 22.7145C23.609 22.3795 23.4978 22.0635 23.4866 21.7398C23.4679 21.1782 23.7838 20.6078 24.2908 20.2967C27.2564 18.4821 28.4889 15.5821 28.4889 12.1959C28.4889 6.80502 24.2233 2.41776 18.98 2.41776H3.73084Z" fill="#3B852A"/>
<path id="Vector_3" fill-rule="evenodd" clip-rule="evenodd" d="M10.2441 10.4808C10.2441 9.95195 10.6625 9.52002 11.1782 9.52002H15.6373C18.3969 9.52002 20.0952 10.739 20.0952 13.1316V13.2197C20.0952 15.4373 18.4818 16.83 15.6785 16.83H13.0113L10.2466 19.6621V16.8288H10.2454V10.4821" fill="#84B818"/>
</g>
</g>
<defs>
<clipPath id="clip0_10198_668">
<rect width="241" height="34" fill="white"/>
</clipPath>
</defs>
</svg>
