<svg width="100" height="101" viewBox="0 0 100 101" fill="none" xmlns="http://www.w3.org/2000/svg">
<g id="scrool btn">
<circle id="Ellipse 2318" cx="49.9995" cy="50.5688" r="50" fill="white" fill-opacity="0.56"/>
<path id="Vector" d="M47.9995 50.0688H17.9995" stroke="#0C2742"/>
<path id="Vector_2" d="M53.9995 50.0688L47.9995 53.5688V46.5688L53.9995 50.0688Z" fill="#0C2742"/>
<path id="Vector_3" d="M49.9995 75.5688C63.8066 75.5688 74.9995 64.376 74.9995 50.5688C74.9995 36.7617 63.8066 25.5688 49.9995 25.5688C36.1924 25.5688 24.9995 36.7617 24.9995 50.5688C24.9995 64.376 36.1924 75.5688 49.9995 75.5688Z" stroke="#BEBEBD" stroke-miterlimit="10"/>
<path id="Vector_4" d="M49.9995 75.5688C63.8066 75.5688 74.9995 64.376 74.9995 50.5688C74.9995 36.7617 63.8066 25.5688 49.9995 25.5688C36.1924 25.5688 24.9995 36.7617 24.9995 50.5688C24.9995 64.376 36.1924 75.5688 49.9995 75.5688Z" stroke="#0C2742" stroke-miterlimit="10" stroke-dasharray="160 160"/>
</g>
</svg>
