<svg width="68" height="12" viewBox="0 0 68 12" fill="none" xmlns="http://www.w3.org/2000/svg">
<path d="M6.32031 1.42188C6.60156 0.859375 7.39844 0.882812 7.65625 1.42188L9.20312 4.53906L12.625 5.03125C13.2344 5.125 13.4688 5.875 13.0234 6.32031L10.5625 8.73438L11.1484 12.1328C11.2422 12.7422 10.5859 13.2109 10.0469 12.9297L7 11.3125L3.92969 12.9297C3.39062 13.2109 2.73438 12.7422 2.82812 12.1328L3.41406 8.73438L0.953125 6.32031C0.507812 5.875 0.742188 5.125 1.35156 5.03125L4.79688 4.53906L6.32031 1.42188ZM19.8203 1.42188C20.1016 0.859375 20.8984 0.882812 21.1562 1.42188L22.7031 4.53906L26.125 5.03125C26.7344 5.125 26.9688 5.875 26.5234 6.32031L24.0625 8.73438L24.6484 12.1328C24.7422 12.7422 24.0859 13.2109 23.5469 12.9297L20.5 11.3125L17.4297 12.9297C16.8906 13.2109 16.2344 12.7422 16.3281 12.1328L16.9141 8.73438L14.4531 6.32031C14.0078 5.875 14.2422 5.125 14.8516 5.03125L18.2969 4.53906L19.8203 1.42188ZM33.3203 1.42188C33.6016 0.859375 34.3984 0.882812 34.6562 1.42188L36.2031 4.53906L39.625 5.03125C40.2344 5.125 40.4688 5.875 40.0234 6.32031L37.5625 8.73438L38.1484 12.1328C38.2422 12.7422 37.5859 13.2109 37.0469 12.9297L34 11.3125L30.9297 12.9297C30.3906 13.2109 29.7344 12.7422 29.8281 12.1328L30.4141 8.73438L27.9531 6.32031C27.5078 5.875 27.7422 5.125 28.3516 5.03125L31.7969 4.53906L33.3203 1.42188ZM46.8203 1.42188C47.1016 0.859375 47.8984 0.882812 48.1562 1.42188L49.7031 4.53906L53.125 5.03125C53.7344 5.125 53.9688 5.875 53.5234 6.32031L51.0625 8.73438L51.6484 12.1328C51.7422 12.7422 51.0859 13.2109 50.5469 12.9297L47.5 11.3125L44.4297 12.9297C43.8906 13.2109 43.2344 12.7422 43.3281 12.1328L43.9141 8.73438L41.4531 6.32031C41.0078 5.875 41.2422 5.125 41.8516 5.03125L45.2969 4.53906L46.8203 1.42188ZM60.3203 1.42188C60.6016 0.859375 61.3984 0.882812 61.6562 1.42188L63.2031 4.53906L66.625 5.03125C67.2344 5.125 67.4688 5.875 67.0234 6.32031L64.5625 8.73438L65.1484 12.1328C65.2422 12.7422 64.5859 13.2109 64.0469 12.9297L61 11.3125L57.9297 12.9297C57.3906 13.2109 56.7344 12.7422 56.8281 12.1328L57.4141 8.73438L54.9531 6.32031C54.5078 5.875 54.7422 5.125 55.3516 5.03125L58.7969 4.53906L60.3203 1.42188Z" fill="#F2915D"/>
</svg>
